<?xml version="1.0" standalone="no"?>
<!DOCTYPE svg PUBLIC "-//W3C//DTD SVG 20010904//EN"
 "http://www.w3.org/TR/2001/REC-SVG-20010904/DTD/svg10.dtd">
<svg version="1.0" xmlns="http://www.w3.org/2000/svg"
 width="1280.000000pt" height="1280.000000pt" viewBox="0 0 1280.000000 1280.000000"
 preserveAspectRatio="xMidYMid meet">

<g transform="translate(0.000000,1280.000000) scale(0.100000,-0.100000)"
fill="#000000" stroke="none">
<path d="M0 6400 l0 -6400 6400 0 6400 0 0 6400 0 6400 -6400 0 -6400 0 0
-6400z m10340 5734 c124 -97 259 -201 300 -232 41 -31 82 -62 90 -69 8 -6 164
-127 345 -267 182 -141 349 -271 372 -289 22 -17 64 -50 93 -72 29 -22 69 -53
90 -70 21 -16 90 -70 154 -119 76 -58 115 -94 112 -103 -3 -7 -90 -127 -194
-266 -104 -138 -230 -308 -281 -377 -51 -69 -101 -136 -111 -150 -135 -180
-406 -544 -514 -690 -76 -102 -146 -196 -156 -210 -67 -89 -595 -799 -670
-900 -10 -14 -101 -135 -201 -270 -197 -264 -340 -457 -602 -810 -92 -124
-183 -245 -202 -270 -19 -25 -81 -108 -138 -185 -57 -77 -191 -257 -297 -400
-106 -143 -205 -276 -219 -295 -14 -19 -31 -42 -38 -50 -7 -8 -74 -98 -149
-200 -75 -102 -218 -293 -316 -425 -99 -132 -188 -251 -198 -265 -60 -81 -250
-337 -401 -540 -274 -367 -455 -611 -588 -790 -67 -91 -127 -172 -134 -180
-20 -26 -116 -155 -257 -345 -297 -401 -404 -544 -465 -625 -35 -47 -127 -170
-205 -275 -77 -104 -156 -210 -175 -235 -19 -25 -71 -94 -116 -155 -109 -148
-211 -287 -226 -305 -7 -8 -75 -100 -153 -205 -77 -104 -156 -210 -175 -235
-19 -25 -68 -90 -108 -145 -41 -55 -160 -216 -266 -358 l-192 -257 -1329 0
c-893 0 -1331 3 -1335 10 -4 6 4 23 17 39 22 29 89 118 303 411 58 80 115 156
125 170 18 24 63 84 255 345 44 61 92 126 105 145 13 19 37 51 52 70 15 19 54
71 86 115 54 75 105 144 272 370 37 50 98 133 136 185 170 230 222 301 291
395 40 55 118 161 173 235 55 74 106 144 114 155 8 11 49 67 92 125 160 216
211 286 250 340 21 30 44 62 51 70 7 8 47 62 89 120 43 58 109 148 148 200 38
52 100 136 136 185 62 84 138 187 265 360 28 39 83 113 122 165 38 52 109 149
158 215 48 66 101 137 116 157 16 20 29 42 29 47 0 6 -33 55 -73 108 -41 54
-112 150 -159 213 -124 168 -237 321 -258 350 -10 14 -54 72 -96 130 -255 345
-387 524 -414 560 -10 14 -60 81 -111 150 -116 158 -202 274 -304 412 -44 59
-111 150 -150 203 -38 52 -107 145 -153 207 -46 62 -118 160 -161 218 -43 58
-129 175 -193 260 -63 85 -147 200 -188 255 -96 131 -191 260 -310 420 -53 72
-128 173 -166 225 -39 52 -130 176 -204 275 -73 99 -146 198 -162 220 -16 22
-100 135 -186 251 -87 116 -206 278 -267 360 -60 82 -147 201 -194 264 -47 63
-116 158 -155 210 -172 234 -218 297 -237 320 -11 14 -34 46 -52 72 -18 26
-38 48 -44 48 -33 0 -19 13 215 198 96 75 186 146 201 157 14 11 94 74 176
140 83 66 166 132 185 147 19 14 105 82 191 150 86 68 239 188 340 267 101 79
186 147 189 150 3 4 58 48 123 99 72 56 123 90 130 85 13 -8 51 -52 82 -94 17
-23 391 -502 428 -549 7 -8 26 -33 42 -55 16 -22 32 -42 35 -45 6 -5 203 -258
286 -366 33 -44 564 -723 642 -823 15 -19 36 -47 47 -62 16 -22 778 -998 818
-1049 12 -14 615 -788 1181 -1515 142 -181 263 -330 271 -330 12 0 183 210
405 500 26 34 796 1019 817 1045 6 8 94 121 195 250 224 288 224 288 323 413
44 56 89 114 100 128 11 14 40 52 65 84 25 32 56 72 70 90 14 18 185 236 380
485 195 249 371 473 390 498 19 25 46 59 60 77 14 18 45 59 69 91 25 33 47 61
50 64 4 3 19 23 36 45 16 22 35 46 43 54 8 8 32 39 55 70 23 31 44 58 47 61 4
3 19 23 35 45 17 22 32 42 35 45 4 3 19 23 35 45 17 22 32 42 35 45 4 3 147
186 320 408 172 221 318 402 324 402 6 0 112 -79 236 -176z m-305 -5404 c374
-5 1010 -15 1413 -21 l732 -12 0 -318 c0 -192 -4 -319 -10 -321 -5 -2 -13
-267 -19 -669 -11 -692 -18 -896 -32 -905 -5 -3 -444 0 -976 5 -533 6 -1476
13 -2098 16 -1180 6 -1415 10 -1415 27 0 6 41 67 92 137 50 69 107 149 127
176 19 28 38 52 41 55 4 3 43 57 88 120 90 127 239 333 593 820 50 69 134 186
187 260 53 74 102 142 109 150 7 8 46 61 86 117 39 56 116 162 170 237 l98
136 67 0 c37 0 373 -4 747 -10z m-1530 -3990 c479 -5 1397 -15 2040 -20 644
-6 1251 -13 1351 -16 l181 -6 6 -302 c4 -165 9 -625 12 -1021 3 -396 8 -764
11 -817 l5 -98 -3736 0 c-2054 0 -3735 2 -3735 5 0 2 28 43 63 91 34 47 100
139 147 204 47 64 141 195 210 290 224 310 298 413 415 575 63 88 167 232 231
320 63 88 159 221 212 295 53 74 102 142 109 150 11 13 148 203 237 328 l30
43 671 -6 c368 -3 1062 -10 1540 -15z"/>
</g>
</svg>
